<?xml version="1.0" encoding="utf-8"?>
<!-- Generator: Adobe Illustrator 15.0.0, SVG Export Plug-In . SVG Version: 6.00 Build 0)  -->
<!DOCTYPE svg PUBLIC "-//W3C//DTD SVG 1.1//EN" "http://www.w3.org/Graphics/SVG/1.1/DTD/svg11.dtd">
<svg version="1.1" xmlns="http://www.w3.org/2000/svg" xmlns:xlink="http://www.w3.org/1999/xlink" x="0px" y="0px" width="500px"
	 height="500px" viewBox="0 0 500 500" enable-background="new 0 0 500 500" xml:space="preserve">
<g id="Layer_1">
</g>
<g id="Layer_2">
	<rect fill="#29314B" width="500" height="500"/>
	<radialGradient id="SVGID_1_" cx="250" cy="250" r="215.9892" gradientUnits="userSpaceOnUse">
		<stop  offset="0.3394" style="stop-color:#7B746E"/>
		<stop  offset="1" style="stop-color:#29314B"/>
	</radialGradient>
	<circle fill="url(#SVGID_1_)" cx="250" cy="250" r="215.989"/>
	<path fill="#FFFFFF" d="M387.358,287.983c-19.639-18.81-48.83-29.037-75.262-34.6c-5.253-22.924-25.131-97.224-62.097-96.828
		c-8.479-1.27-57.753,9.365-57.753,9.365c-13.111,1.405-14.41,19.667-14.41,19.667c-8.325-11.771-3.385-4.214-23.052,0
		c-19.667,4.214-4.683,12.929-4.683,12.929c12.175,4.5,21.072-4.5,21.072-4.5c15.453,12.175,21.072-4.215,21.072-4.215
		c3.642,6.581,8.693,8.797,13.613,8.985c-9.539,20.741-15.435,43.588-17.956,54.596c-26.431,5.563-55.624,15.79-75.262,34.598
		C68.314,330.436,250,343.547,250,343.547v0.002C250,343.549,431.686,330.438,387.358,287.983z"/>
</g>
</svg>
